
<svg width="27px" height="27px" viewBox="0 0 27 27" version="1.1" xmlns="http://www.w3.org/2000/svg" xmlns:xlink="http://www.w3.org/1999/xlink">
    <g id="Page-1" stroke="none" stroke-width="1" fill="none" fill-rule="evenodd">
        <g id="Desktop" transform="translate(-1245.000000, -28.000000)" fill="#FFFFFF" fill-rule="nonzero">
            <g id="Group-Copy-3" transform="translate(94.000000, 13.332231)">
                <g id="profile" transform="translate(1151.000000, 14.667769)">
                    <path d="M23.0459766,17.4540234 C21.575584,15.9836836 19.8254355,14.8951934 17.9159238,14.2362773 C19.9610684,12.8276895 21.3046875,10.4703047 21.3046875,7.8046875 C21.3046875,3.50119336 17.8034941,0 13.5,0 C9.19650586,0 5.6953125,3.50119336 5.6953125,7.8046875 C5.6953125,10.4703047 7.03893164,12.8276895 9.08412891,14.2362773 C7.17461719,14.8951934 5.42446875,15.9836836 3.95407617,17.4540234 C1.40426367,20.0038887 0,23.3940234 0,27 L2.109375,27 C2.109375,20.7191777 7.21917773,15.609375 13.5,15.609375 C19.7808223,15.609375 24.890625,20.7191777 24.890625,27 L27,27 C27,23.3940234 25.5957363,20.0038887 23.0459766,17.4540234 Z M13.5,13.5 C10.3596152,13.5 7.8046875,10.945125 7.8046875,7.8046875 C7.8046875,4.66425 10.3596152,2.109375 13.5,2.109375 C16.6403848,2.109375 19.1953125,4.66425 19.1953125,7.8046875 C19.1953125,10.945125 16.6403848,13.5 13.5,13.5 Z" id="Shape"></path>
                </g>
            </g>
        </g>
    </g>
</svg>