
<svg width="24.9957407px" height="24.9973148px" viewBox="0 0 24.9957407 24.9973148" version="1.1" xmlns="http://www.w3.org/2000/svg" xmlns:xlink="http://www.w3.org/1999/xlink">
    <defs>
        <polyline id="path-f0vig57lr5-1" points="0 0 24.9957407 0 24.9957407 24.9973148 0 24.9973148"></polyline>
    </defs>
    <g id="Page-1" stroke="none" stroke-width="1" fill="none" fill-rule="evenodd">
        <g id="Desktop" transform="translate(-1173.000000, -29.002685)">
            <g id="Group-Copy-3" transform="translate(94.000000, 13.332231)">
                <g id="search" transform="translate(1079.000000, 15.670455)">
                    <mask id="mask-f0vig57lr5-2" fill="white">
                        <use xlink:href="#path-f0vig57lr5-1"></use>
                    </mask>
                    <g id="Clip-2"></g>
                    <path d="M9.99014815,16.6609537 C13.6445,16.66225 16.6604259,13.6853981 16.6652407,10.0721574 C16.6702407,6.33623148 13.7128333,3.33002778 10.0302407,3.32762037 C6.32635185,3.32521296 3.33338889,6.30039815 3.33190741,9.98613889 C3.33051852,13.6684537 6.31431481,16.6596574 9.99014815,16.6609537 M15.7954259,18.1438241 C11.1627407,21.3753981 5.27366667,20.1387315 2.15922222,16.1976204 C-0.962814815,12.246787 -0.67337037,6.65789815 2.85959259,2.99493519 C6.30042593,-0.572564815 11.9508889,-1.00543519 15.9729259,1.97873148 C20.1506111,5.0784537 21.422,11.1859537 18.157463,15.7909537 C18.2132037,15.8493796 18.2696852,15.9109537 18.3287593,15.9700278 C20.3798704,18.0216019 22.4330185,20.0711389 24.4818148,22.1250278 C25.3964444,23.0419722 25.0388519,24.5459537 23.8160741,24.9169722 C23.1569074,25.1169722 22.5860741,24.9365093 22.1032963,24.4533611 C20.5052407,22.8543796 18.9062593,21.2562315 17.3078333,19.657713 C16.8063519,19.1561389 16.3053333,18.6541944 15.7954259,18.1438241" id="Fill-1" fill="#FFFFFF" mask="url(#mask-f0vig57lr5-2)"></path>
                </g>
            </g>
        </g>
    </g>
</svg>