
<svg width="27px" height="25px" viewBox="0 0 27 25" version="1.1" xmlns="http://www.w3.org/2000/svg" xmlns:xlink="http://www.w3.org/1999/xlink">
    <g id="Page-1" stroke="none" stroke-width="1" fill="none" fill-rule="evenodd">
        <g id="Desktop" transform="translate(-1318.000000, -29.000000)" fill="#FFFFFF" fill-rule="nonzero">
            <g id="Group-Copy-3" transform="translate(94.000000, 13.332231)">
                <g id="buy" transform="translate(1224.000000, 15.667769)">
                    <path d="M25.8906415,4.55173929 L4.77995858,4.55173929 L4.46615598,1.02007395 C4.41483239,0.442531691 3.93570657,0 3.36174826,0 L1.1088431,0 C0.496444895,0 0,0.501528804 0,1.12019835 C0,1.7388679 0.496444895,2.2403967 1.1088431,2.2403967 L2.34800166,2.2403967 C3.02518798,9.86211959 1.27501115,-9.83720851 3.62332962,16.5943516 C3.71383234,17.6288815 4.26714505,18.7514803 5.22032769,19.514282 C3.5017793,21.7314212 5.07200673,25 7.86750578,25 C10.1877336,25 11.8242276,22.6621994 11.0285534,20.4480473 L17.0974101,20.4480473 C16.3027392,22.6593722 17.9356955,25 20.2584578,25 C22.1121266,25 23.620206,23.4764769 23.620206,21.6038253 C23.620206,19.7311737 22.1121266,18.2076506 20.2584578,18.2076506 L7.87500367,18.2076506 C7.03270533,18.2076506 6.29870401,17.6942797 5.98189169,16.9463073 L23.7026828,15.8941743 C24.1864552,15.8654759 24.5957767,15.5225885 24.7133669,15.0476244 L26.9664305,5.94361242 C27.1410997,5.23767408 26.6121287,4.55173929 25.8906415,4.55173929 Z M7.86750578,22.7596033 C7.23673246,22.7596033 6.72349652,22.2411115 6.72349652,21.6038253 C6.72349652,20.9665391 7.23673246,20.4480473 7.86750578,20.4480473 C8.4983319,20.4480473 9.01156784,20.9665391 9.01156784,21.6038253 C9.01156784,22.2411115 8.4983319,22.7596033 7.86750578,22.7596033 Z M20.258405,22.7596033 C19.6275788,22.7596033 19.1143429,22.2411115 19.1143429,21.6038253 C19.1143429,20.9665391 19.6275788,20.4480473 20.258405,20.4480473 C20.8892311,20.4480473 21.402467,20.9665391 21.402467,21.6038253 C21.402467,22.2411115 20.8892311,22.7596033 20.258405,22.7596033 Z M22.759427,13.7059469 L5.68340169,14.7197264 L4.97902232,6.79208265 L24.4704775,6.79208265 L22.759427,13.7059469 Z" id="Shape"></path>
                </g>
            </g>
        </g>
    </g>
</svg>