
<svg width="50px" height="50px" viewBox="0 0 50 50" version="1.1" xmlns="http://www.w3.org/2000/svg" xmlns:xlink="http://www.w3.org/1999/xlink">
    <g id="Page-1" stroke="none" stroke-width="1" fill="none" fill-rule="evenodd">
        <g id="Desktop" transform="translate(-94.000000, -13.332231)" fill="#FFC700">
            <g id="logo" transform="translate(94.000000, 13.332231)">
                <g id="Group-3">
                    <path d="M12.390225,3.5327 L12.390225,3.74495 C12.390225,10.56145 12.388475,17.3782 12.392975,24.1947 C12.393475,24.8892 12.406225,25.58545 12.458725,26.27745 C12.551725,27.50145 12.853725,28.6807 13.325475,29.81395 C14.466975,32.5557 16.345475,34.64295 18.938725,36.08345 C20.122725,36.7412 21.390725,37.1752 22.723475,37.4162 C23.678475,37.58895 24.642475,37.6467 25.610225,37.59195 C27.825225,37.46645 29.874725,36.81445 31.734975,35.6012 C34.155475,34.02245 35.844225,31.86295 36.799725,29.1352 C37.160725,28.10495 37.371225,27.0422 37.443225,25.9522 C37.619725,23.2837 37.029725,20.7972 35.628975,18.51895 C34.161475,16.13195 32.110725,14.42395 29.506725,13.38595 C28.504475,12.98645 27.464725,12.7307 26.392225,12.6122 C23.442225,12.2867 20.709725,12.91195 18.195975,14.49095 C18.168975,14.50795 18.139725,14.5217 18.097975,14.5442 C18.095475,14.48745 18.091725,14.4437 18.091725,14.39995 C18.091475,10.01245 18.091975,5.62495 18.088475,1.23745 C18.088475,1.1232 18.125475,1.0802 18.229725,1.05145 C19.354475,0.74195 20.494475,0.5072 21.650225,0.35145 C23.056975,0.1617 24.470975,0.10145 25.888725,0.1522 C27.029725,0.19295 28.162975,0.31545 29.288475,0.5142 C32.156475,1.0202 34.857975,1.9912 37.372975,3.4572 C41.902225,6.0967 45.291475,9.7912 47.533725,14.5322 C48.456475,16.48345 49.093975,18.5272 49.476475,20.65045 C49.794225,22.41545 49.918225,24.1957 49.848725,25.98645 C49.684475,30.23345 48.523225,34.1897 46.345725,37.8422 C44.907725,40.25395 43.106975,42.3597 40.957225,44.16645 C39.040475,45.77695 36.928225,47.0687 34.623475,48.0452 C33.094725,48.69295 31.515225,49.1787 29.888225,49.50795 C27.973975,49.8952 26.038725,50.0597 24.088225,49.9807 C23.244975,49.9467 22.401225,49.8682 21.563475,49.7637 C19.371475,49.4902 17.261725,48.89895 15.228725,48.0377 C12.664475,46.9512 10.344475,45.47695 8.275475,43.6127 C5.568475,41.1737 3.484975,38.28395 2.035975,34.93895 C1.247225,33.11745 0.691475,31.2272 0.356725,29.27045 C0.068475,27.5852 -0.050525,25.88745 0.019475,24.1812 C0.257225,18.39045 2.251725,13.2777 5.999725,8.85795 C7.787975,6.74945 9.889225,5.0042 12.268975,3.5957 C12.299975,3.57745 12.332975,3.5622 12.390225,3.5327" id="Fill-1"></path>
                </g>
                <path d="M24.9319,32.664125 C20.74065,32.662875 17.33465,29.254875 17.33915,25.060875 C17.34365,20.837125 20.7889,17.414625 25.0434,17.472375 C29.16815,17.528375 32.53165,20.884375 32.5299,25.078875 C32.52815,29.263625 29.11815,32.665375 24.9319,32.664125" id="Fill-4"></path>
            </g>
        </g>
    </g>
</svg>